<svg xmlns="http://www.w3.org/2000/svg" width="128" height="128" viewBox="0 0 128 128" fill="none">
  <rect width="128" height="128" fill="#0a0e1a"/>
  <rect x="6" y="6" width="34" height="34" fill="#fff" rx="2"/>
  <rect x="12" y="12" width="22" height="22" fill="#0a0e1a"/>
  <rect x="16" y="16" width="14" height="14" fill="#fff"/>
  <rect x="88" y="6" width="34" height="34" fill="#fff" rx="2"/>
  <rect x="94" y="12" width="22" height="22" fill="#0a0e1a"/>
  <rect x="98" y="16" width="14" height="14" fill="#fff"/>
  <rect x="6" y="88" width="34" height="34" fill="#fff" rx="2"/>
  <rect x="12" y="94" width="22" height="22" fill="#0a0e1a"/>
  <rect x="16" y="98" width="14" height="14" fill="#fff"/>
  <rect x="48" y="6" width="6" height="6" fill="#fff"/>
  <rect x="64" y="6" width="6" height="6" fill="#fff"/>
  <rect x="48" y="22" width="6" height="6" fill="#fff"/>
  <rect x="56" y="14" width="6" height="6" fill="#fff"/>
  <rect x="72" y="22" width="6" height="6" fill="#fff"/>
  <rect x="48" y="38" width="6" height="6" fill="#fff"/>
  <rect x="64" y="38" width="6" height="6" fill="#fff"/>
  <rect x="80" y="50" width="6" height="6" fill="#fff"/>
  <rect x="96" y="50" width="6" height="6" fill="#fff"/>
  <rect x="48" y="50" width="6" height="6" fill="#fff"/>
  <rect x="56" y="58" width="6" height="6" fill="#fff"/>
  <rect x="72" y="58" width="6" height="6" fill="#fff"/>
  <rect x="88" y="58" width="6" height="6" fill="#fff"/>
  <rect x="104" y="58" width="6" height="6" fill="#fff"/>
  <rect x="48" y="66" width="6" height="6" fill="#fff"/>
  <rect x="64" y="74" width="6" height="6" fill="#fff"/>
  <rect x="80" y="74" width="6" height="6" fill="#fff"/>
  <rect x="96" y="74" width="6" height="6" fill="#fff"/>
  <rect x="48" y="82" width="6" height="6" fill="#fff"/>
  <rect x="56" y="90" width="6" height="6" fill="#fff"/>
  <rect x="72" y="90" width="6" height="6" fill="#fff"/>
  <rect x="88" y="90" width="6" height="6" fill="#fff"/>
  <rect x="104" y="90" width="6" height="6" fill="#fff"/>
  <rect x="48" y="98" width="6" height="6" fill="#fff"/>
  <rect x="64" y="106" width="6" height="6" fill="#fff"/>
  <rect x="80" y="106" width="6" height="6" fill="#fff"/>
  <rect x="96" y="106" width="6" height="6" fill="#fff"/>
</svg>
